<?xml version="1.0" encoding="UTF-8" standalone="no"?>
<!DOCTYPE svg PUBLIC "-//W3C//DTD SVG 1.1//EN" "http://www.w3.org/Graphics/SVG/1.1/DTD/svg11.dtd">
<svg width="100%" height="100%" viewBox="0 0 119 119" version="1.1" xmlns="http://www.w3.org/2000/svg" xmlns:xlink="http://www.w3.org/1999/xlink" xml:space="preserve" xmlns:serif="http://www.serif.com/" style="fill-rule:evenodd;clip-rule:evenodd;stroke-linejoin:round;stroke-miterlimit:2;">
    <g transform="matrix(1,0,0,1,-2.10179e-11,7.93803)">
        <path d="M113.577,81.092C100.958,55.854 83.993,21.925 75.518,4.974C72.4,-1.262 66.027,-5.2 59.055,-5.2C52.084,-5.2 45.71,-1.262 42.593,4.974L4.534,81.092C0.541,89.077 2.929,98.779 10.171,103.999C17.413,109.219 27.372,108.416 33.685,102.103C33.687,102.101 33.69,102.098 33.693,102.095C47.7,88.088 70.41,88.088 84.418,102.095C84.42,102.098 84.423,102.101 84.426,102.103C90.738,108.416 100.697,109.219 107.939,103.999C115.181,98.779 117.569,89.077 113.577,81.092L113.577,81.092ZM102.396,86.682C103.647,89.184 102.899,92.223 100.63,93.858C98.362,95.493 95.242,95.242 93.264,93.264C93.262,93.262 93.259,93.259 93.256,93.256C74.368,74.368 43.743,74.368 24.854,93.256C24.851,93.259 24.848,93.262 24.846,93.264C22.868,95.242 19.749,95.493 17.48,93.858C15.211,92.223 14.463,89.184 15.714,86.682C28.333,61.444 45.298,27.515 53.773,10.564C54.773,8.563 56.818,7.3 59.055,7.3C61.292,7.3 63.337,8.563 64.337,10.564C72.813,27.515 89.777,61.444 102.396,86.682Z" style="fill:rgb(220,220,220);"/>
    </g>
</svg>
